<?xml version="1.0" encoding="UTF-8" standalone="no"?>
<!-- Created with Inkscape (http://www.inkscape.org/) -->

<svg
   xmlns:dc="http://purl.org/dc/elements/1.1/"
   xmlns:cc="http://creativecommons.org/ns#"
   xmlns:rdf="http://www.w3.org/1999/02/22-rdf-syntax-ns#"
   xmlns:svg="http://www.w3.org/2000/svg"
   xmlns="http://www.w3.org/2000/svg"
   xmlns:sodipodi="http://sodipodi.sourceforge.net/DTD/sodipodi-0.dtd"
   xmlns:inkscape="http://www.inkscape.org/namespaces/inkscape"
   width="12.004953mm"
   height="12.005469mm"
   viewBox="0 0 12.004953 12.005469"
   version="1.1"
   id="svg8539"
   inkscape:version="0.92.3 (2405546, 2018-03-11)"
   sodipodi:docname="logo-2.svg">
  <defs
     id="defs8533" />
  <sodipodi:namedview
     id="base"
     pagecolor="#ffffff"
     bordercolor="#666666"
     borderopacity="1.0"
     inkscape:pageopacity="0.0"
     inkscape:pageshadow="2"
     inkscape:zoom="0.35"
     inkscape:cx="-643.02778"
     inkscape:cy="-211.59821"
     inkscape:document-units="mm"
     inkscape:current-layer="layer1"
     showgrid="false"
     fit-margin-top="0"
     fit-margin-left="0"
     fit-margin-right="0"
     fit-margin-bottom="0"
     inkscape:window-width="1920"
     inkscape:window-height="1018"
     inkscape:window-x="1912"
     inkscape:window-y="-8"
     inkscape:window-maximized="1" />
  <metadata
     id="metadata8536">
    <rdf:RDF>
      <cc:Work
         rdf:about="">
        <dc:format>image/svg+xml</dc:format>
        <dc:type
           rdf:resource="http://purl.org/dc/dcmitype/StillImage" />
        <dc:title></dc:title>
      </cc:Work>
    </rdf:RDF>
  </metadata>
  <g
     inkscape:label="Layer 1"
     inkscape:groupmode="layer"
     id="layer1"
     transform="translate(-139.89634,-80.842504)">
    <g
       id="g1641-6-0"
       transform="matrix(1.0179692,0,0,1.0179692,116.9572,-16.266697)"
       inkscape:export-xdpi="846.30035"
       inkscape:export-ydpi="846.30035"
       style="fill:#000000;fill-opacity:1">
      <path
         style="fill:#000000;fill-opacity:1;stroke:none;stroke-width:1.34660494;stroke-linecap:square;stroke-linejoin:miter;stroke-miterlimit:4;stroke-dasharray:none;stroke-opacity:1;paint-order:fill markers stroke"
         d="m 90.693359,304.80273 a 22.686965,22.686965 0 0 0 -22.6875,22.6875 22.686965,22.686965 0 0 0 22.6875,22.6875 22.686965,22.686965 0 0 0 22.685551,-22.6875 22.686965,22.686965 0 0 0 -20.890629,-22.59765 v 36.41211 c -1.13e-4,0 -0.01386,0.11166 -0.134765,0.0273 l -9.029297,-7.33398 c -0.05458,-0.0562 -0.09078,-0.0783 -0.06055,-0.17383 l 9.072266,-28.93945 a 22.686965,22.686965 0 0 0 -1.642579,-0.082 z m 2.914063,18.87305 c 5.529864,1.44214 10.123048,6.3192 10.123048,12.30078 0,7.10663 -5.760566,12.86719 -12.867189,12.86719 -6.833457,0 -12.424165,-5.32697 -12.84375,-12.05469 0.04611,-2.72408 0.531368,-4.44191 0.695313,-4.94922 0.03704,-0.13236 0.160156,-0.0723 0.160156,-0.0723 l 14.347656,11.65234 c 0.351496,0.30471 0.250595,-0.0575 0.263672,-0.0605 v -19.45704 c 1.1e-5,-0.19801 -4.07e-4,-0.245 0.121094,-0.22656 z"
         transform="matrix(0.25991291,0,0,0.25991291,4.8586147,16.172864)"
         id="path1635-8-7"
         inkscape:connector-curvature="0" />
    </g>
  </g>
</svg>
